<svg xmlns="http://www.w3.org/2000/svg" viewBox="0 0 977 467" width="977" height="467">
  <path d="M 283.0 353.0 L 285.0 351.0 L 287.0 352.0 L 287.0 442.0 L 286.0 443.0 L 284.0 443.0 L 283.0 441.0 L 284.0 439.0 L 284.0 354.0 Z M 533.0 353.0 L 534.0 351.0 L 536.0 352.0 L 536.0 443.0 L 534.0 443.0 L 533.0 442.0 L 533.0 354.0 Z M 441.0 357.0 L 443.0 357.0 L 447.0 355.0 L 450.0 355.0 L 451.0 354.0 L 456.0 354.0 L 456.0 361.0 L 455.0 362.0 L 455.0 369.0 L 454.0 370.0 L 454.0 375.0 L 453.0 376.0 L 453.0 384.0 L 452.0 385.0 L 452.0 391.0 L 451.0 392.0 L 451.0 401.0 L 450.0 402.0 L 450.0 409.0 L 449.0 410.0 L 449.0 421.0 L 448.0 422.0 L 449.0 424.0 L 452.0 424.0 L 455.0 422.0 L 456.0 422.0 L 456.0 423.0 L 448.0 427.0 L 445.0 427.0 L 444.0 428.0 L 442.0 426.0 L 442.0 424.0 L 443.0 423.0 L 444.0 403.0 L 445.0 402.0 L 445.0 396.0 L 446.0 395.0 L 446.0 386.0 L 447.0 385.0 L 447.0 379.0 L 448.0 378.0 L 448.0 368.0 L 449.0 367.0 L 449.0 359.0 L 447.0 357.0 L 446.0 358.0 L 443.0 358.0 L 442.0 359.0 L 441.0 359.0 L 441.0 358.0 Z M 491.0 357.0 L 487.0 359.0 L 485.0 359.0 L 485.0 358.0 L 486.0 357.0 L 488.0 357.0 L 492.0 355.0 L 495.0 355.0 L 496.0 354.0 L 501.0 354.0 L 501.0 358.0 L 500.0 359.0 L 500.0 365.0 L 499.0 366.0 L 499.0 373.0 L 498.0 374.0 L 498.0 379.0 L 497.0 380.0 L 496.0 394.0 L 495.0 395.0 L 494.0 412.0 L 493.0 413.0 L 493.0 423.0 L 494.0 424.0 L 499.0 421.0 L 500.0 421.0 L 500.0 422.0 L 498.0 424.0 L 492.0 427.0 L 489.0 427.0 L 488.0 428.0 L 487.0 427.0 L 487.0 420.0 L 488.0 419.0 L 488.0 415.0 L 487.0 414.0 L 485.0 416.0 L 483.0 420.0 L 477.0 426.0 L 473.0 427.0 L 472.0 428.0 L 468.0 427.0 L 465.0 424.0 L 463.0 420.0 L 463.0 417.0 L 462.0 416.0 L 462.0 409.0 L 463.0 408.0 L 463.0 404.0 L 464.0 403.0 L 464.0 401.0 L 468.0 394.0 L 476.0 387.0 L 480.0 385.0 L 482.0 385.0 L 483.0 384.0 L 491.0 384.0 L 492.0 383.0 L 493.0 365.0 L 494.0 364.0 L 494.0 359.0 L 492.0 358.0 Z M 20.0 362.0 L 57.0 362.0 L 58.0 363.0 L 63.0 364.0 L 67.0 367.0 L 68.0 367.0 L 73.0 372.0 L 76.0 378.0 L 76.0 380.0 L 77.0 381.0 L 77.0 400.0 L 76.0 401.0 L 75.0 406.0 L 71.0 413.0 L 62.0 422.0 L 54.0 426.0 L 51.0 426.0 L 50.0 427.0 L 42.0 427.0 L 41.0 428.0 L 34.0 428.0 L 33.0 427.0 L 15.0 427.0 L 16.0 425.0 L 20.0 425.0 L 22.0 423.0 L 22.0 421.0 L 23.0 420.0 L 23.0 411.0 L 24.0 410.0 L 24.0 403.0 L 25.0 402.0 L 25.0 394.0 L 26.0 393.0 L 26.0 386.0 L 27.0 385.0 L 27.0 379.0 L 28.0 378.0 L 28.0 365.0 L 27.0 364.0 L 21.0 364.0 L 20.0 363.0 Z M 323.0 362.0 L 338.0 362.0 L 339.0 361.0 L 352.0 361.0 L 353.0 362.0 L 356.0 362.0 L 360.0 364.0 L 363.0 367.0 L 364.0 373.0 L 365.0 374.0 L 364.0 376.0 L 364.0 379.0 L 362.0 383.0 L 354.0 391.0 L 352.0 392.0 L 353.0 394.0 L 356.0 395.0 L 359.0 398.0 L 362.0 404.0 L 362.0 413.0 L 359.0 419.0 L 352.0 425.0 L 350.0 425.0 L 347.0 427.0 L 342.0 427.0 L 341.0 428.0 L 335.0 428.0 L 334.0 427.0 L 333.0 428.0 L 332.0 427.0 L 318.0 427.0 L 319.0 425.0 L 323.0 425.0 L 325.0 423.0 L 325.0 417.0 L 326.0 416.0 L 326.0 408.0 L 327.0 407.0 L 327.0 398.0 L 328.0 397.0 L 328.0 389.0 L 329.0 388.0 L 329.0 382.0 L 330.0 381.0 L 330.0 371.0 L 331.0 370.0 L 331.0 367.0 L 329.0 364.0 L 324.0 364.0 L 323.0 363.0 Z M 572.0 362.0 L 594.0 362.0 L 595.0 361.0 L 599.0 361.0 L 600.0 362.0 L 605.0 362.0 L 609.0 364.0 L 612.0 367.0 L 615.0 373.0 L 615.0 379.0 L 614.0 380.0 L 614.0 384.0 L 611.0 388.0 L 611.0 389.0 L 607.0 393.0 L 600.0 397.0 L 599.0 399.0 L 601.0 403.0 L 603.0 405.0 L 604.0 408.0 L 606.0 410.0 L 608.0 414.0 L 611.0 417.0 L 611.0 418.0 L 619.0 425.0 L 622.0 425.0 L 622.0 427.0 L 610.0 427.0 L 607.0 424.0 L 607.0 423.0 L 599.0 412.0 L 593.0 400.0 L 591.0 398.0 L 590.0 399.0 L 588.0 399.0 L 587.0 398.0 L 583.0 398.0 L 582.0 399.0 L 582.0 407.0 L 581.0 408.0 L 581.0 416.0 L 580.0 417.0 L 580.0 422.0 L 582.0 425.0 L 590.0 425.0 L 590.0 427.0 L 568.0 427.0 L 568.0 425.0 L 572.0 425.0 L 574.0 422.0 L 574.0 415.0 L 575.0 414.0 L 575.0 405.0 L 576.0 404.0 L 577.0 388.0 L 578.0 387.0 L 578.0 378.0 L 579.0 377.0 L 579.0 365.0 L 578.0 364.0 L 572.0 364.0 L 572.0 363.0 Z M 37.0 364.0 L 35.0 366.0 L 35.0 372.0 L 34.0 373.0 L 34.0 378.0 L 33.0 379.0 L 33.0 387.0 L 32.0 388.0 L 32.0 394.0 L 31.0 395.0 L 30.0 411.0 L 29.0 412.0 L 29.0 422.0 L 31.0 424.0 L 33.0 424.0 L 34.0 425.0 L 47.0 425.0 L 48.0 424.0 L 51.0 424.0 L 58.0 420.0 L 66.0 411.0 L 68.0 407.0 L 68.0 405.0 L 69.0 404.0 L 69.0 401.0 L 70.0 400.0 L 70.0 381.0 L 68.0 378.0 L 68.0 376.0 L 61.0 369.0 L 60.0 369.0 L 56.0 366.0 L 53.0 366.0 L 52.0 365.0 L 47.0 365.0 L 46.0 364.0 L 38.0 364.0 Z M 339.0 364.0 L 338.0 365.0 L 338.0 368.0 L 337.0 369.0 L 337.0 376.0 L 336.0 377.0 L 336.0 382.0 L 335.0 383.0 L 335.0 390.0 L 336.0 391.0 L 341.0 391.0 L 342.0 392.0 L 349.0 392.0 L 351.0 391.0 L 355.0 387.0 L 358.0 381.0 L 358.0 373.0 L 356.0 369.0 L 351.0 365.0 L 349.0 364.0 L 340.0 364.0 Z M 588.0 364.0 L 586.0 366.0 L 585.0 381.0 L 584.0 382.0 L 584.0 386.0 L 583.0 387.0 L 583.0 395.0 L 584.0 396.0 L 596.0 396.0 L 600.0 394.0 L 606.0 387.0 L 607.0 383.0 L 608.0 382.0 L 608.0 375.0 L 606.0 371.0 L 602.0 367.0 L 598.0 365.0 L 589.0 364.0 Z M 868.0 367.0 L 870.0 365.0 L 872.0 365.0 L 874.0 367.0 L 874.0 371.0 L 872.0 373.0 L 868.0 373.0 L 867.0 371.0 L 867.0 369.0 L 868.0 368.0 Z M 424.0 368.0 L 424.0 367.0 L 427.0 365.0 L 429.0 365.0 L 430.0 366.0 L 430.0 372.0 L 429.0 373.0 L 425.0 373.0 L 424.0 372.0 L 424.0 369.0 Z M 160.0 369.0 L 160.0 368.0 L 163.0 365.0 L 165.0 365.0 L 167.0 367.0 L 167.0 371.0 L 165.0 373.0 L 161.0 373.0 L 160.0 370.0 Z M 838.0 376.0 L 840.0 375.0 L 843.0 375.0 L 843.0 379.0 L 842.0 380.0 L 842.0 382.0 L 843.0 383.0 L 850.0 383.0 L 851.0 384.0 L 853.0 383.0 L 854.0 384.0 L 852.0 386.0 L 842.0 386.0 L 841.0 387.0 L 841.0 390.0 L 840.0 391.0 L 840.0 396.0 L 839.0 397.0 L 839.0 402.0 L 838.0 403.0 L 838.0 409.0 L 837.0 410.0 L 837.0 421.0 L 840.0 424.0 L 845.0 422.0 L 849.0 419.0 L 850.0 419.0 L 850.0 420.0 L 844.0 425.0 L 840.0 427.0 L 834.0 428.0 L 832.0 427.0 L 831.0 425.0 L 831.0 414.0 L 832.0 413.0 L 832.0 407.0 L 833.0 406.0 L 834.0 394.0 L 835.0 393.0 L 835.0 389.0 L 836.0 387.0 L 835.0 386.0 L 830.0 386.0 L 830.0 384.0 L 833.0 384.0 L 834.0 383.0 L 835.0 384.0 L 837.0 382.0 L 837.0 379.0 L 838.0 377.0 Z M 818.0 379.0 L 822.0 379.0 L 822.0 380.0 L 821.0 381.0 L 821.0 383.0 L 819.0 387.0 L 819.0 392.0 L 818.0 393.0 L 818.0 397.0 L 817.0 398.0 L 816.0 412.0 L 815.0 413.0 L 815.0 422.0 L 816.0 423.0 L 819.0 423.0 L 821.0 421.0 L 823.0 422.0 L 814.0 427.0 L 811.0 427.0 L 810.0 428.0 L 809.0 427.0 L 809.0 424.0 L 810.0 423.0 L 810.0 414.0 L 809.0 413.0 L 805.0 420.0 L 798.0 427.0 L 793.0 428.0 L 791.0 427.0 L 787.0 423.0 L 786.0 421.0 L 786.0 418.0 L 785.0 417.0 L 785.0 406.0 L 786.0 405.0 L 786.0 402.0 L 788.0 399.0 L 788.0 397.0 L 794.0 390.0 L 794.0 389.0 L 795.0 389.0 L 798.0 386.0 L 802.0 384.0 L 804.0 384.0 L 805.0 383.0 L 814.0 383.0 L 816.0 384.0 L 818.0 380.0 Z M 131.0 385.0 L 127.0 390.0 L 128.0 396.0 L 140.0 407.0 L 143.0 413.0 L 143.0 419.0 L 141.0 423.0 L 139.0 425.0 L 135.0 427.0 L 132.0 427.0 L 131.0 428.0 L 128.0 428.0 L 127.0 427.0 L 123.0 427.0 L 121.0 426.0 L 118.0 423.0 L 118.0 420.0 L 119.0 419.0 L 122.0 419.0 L 127.0 426.0 L 131.0 426.0 L 135.0 424.0 L 138.0 419.0 L 138.0 416.0 L 136.0 412.0 L 124.0 401.0 L 123.0 397.0 L 122.0 396.0 L 122.0 392.0 L 124.0 388.0 L 127.0 385.0 L 131.0 383.0 L 140.0 383.0 L 143.0 385.0 L 143.0 388.0 L 142.0 389.0 L 139.0 389.0 L 136.0 385.0 L 132.0 385.0 Z M 188.0 385.0 L 184.0 389.0 L 183.0 393.0 L 182.0 394.0 L 182.0 405.0 L 184.0 409.0 L 187.0 411.0 L 191.0 411.0 L 193.0 410.0 L 196.0 407.0 L 198.0 403.0 L 198.0 391.0 L 197.0 389.0 L 193.0 385.0 L 189.0 385.0 Z M 400.0 385.0 L 401.0 383.0 L 404.0 383.0 L 405.0 384.0 L 405.0 390.0 L 404.0 391.0 L 404.0 396.0 L 403.0 397.0 L 403.0 402.0 L 402.0 403.0 L 402.0 409.0 L 401.0 410.0 L 401.0 423.0 L 402.0 424.0 L 404.0 424.0 L 407.0 422.0 L 408.0 422.0 L 408.0 423.0 L 403.0 426.0 L 401.0 426.0 L 397.0 428.0 L 396.0 427.0 L 395.0 428.0 L 395.0 418.0 L 396.0 417.0 L 396.0 411.0 L 395.0 410.0 L 393.0 414.0 L 389.0 419.0 L 389.0 420.0 L 382.0 427.0 L 378.0 428.0 L 374.0 425.0 L 373.0 423.0 L 373.0 413.0 L 374.0 412.0 L 374.0 404.0 L 375.0 403.0 L 375.0 399.0 L 376.0 398.0 L 376.0 387.0 L 375.0 386.0 L 373.0 386.0 L 369.0 388.0 L 370.0 386.0 L 376.0 383.0 L 382.0 382.0 L 383.0 384.0 L 383.0 386.0 L 382.0 387.0 L 382.0 392.0 L 381.0 393.0 L 380.0 405.0 L 379.0 406.0 L 379.0 421.0 L 380.0 422.0 L 384.0 422.0 L 390.0 416.0 L 396.0 405.0 L 396.0 403.0 L 398.0 399.0 L 398.0 394.0 L 399.0 393.0 L 399.0 388.0 L 400.0 386.0 Z M 722.0 385.0 L 721.0 386.0 L 719.0 386.0 L 713.0 392.0 L 710.0 398.0 L 710.0 400.0 L 709.0 401.0 L 709.0 418.0 L 710.0 420.0 L 714.0 424.0 L 722.0 424.0 L 728.0 418.0 L 730.0 414.0 L 730.0 412.0 L 731.0 411.0 L 731.0 408.0 L 732.0 407.0 L 732.0 395.0 L 731.0 394.0 L 731.0 391.0 L 728.0 387.0 L 723.0 385.0 Z M 774.0 385.0 L 779.0 385.0 L 779.0 391.0 L 777.0 395.0 L 777.0 398.0 L 775.0 401.0 L 775.0 403.0 L 771.0 411.0 L 769.0 413.0 L 765.0 421.0 L 759.0 429.0 L 758.0 429.0 L 758.0 424.0 L 757.0 423.0 L 757.0 419.0 L 756.0 418.0 L 756.0 413.0 L 754.0 409.0 L 754.0 405.0 L 753.0 404.0 L 753.0 401.0 L 752.0 400.0 L 751.0 395.0 L 748.0 389.0 L 746.0 387.0 L 742.0 387.0 L 742.0 386.0 L 746.0 383.0 L 749.0 383.0 L 754.0 387.0 L 756.0 391.0 L 756.0 393.0 L 757.0 394.0 L 758.0 400.0 L 759.0 401.0 L 759.0 405.0 L 760.0 406.0 L 760.0 409.0 L 761.0 410.0 L 761.0 417.0 L 763.0 420.0 L 766.0 416.0 L 767.0 413.0 L 769.0 411.0 L 771.0 407.0 L 773.0 399.0 L 774.0 398.0 L 774.0 386.0 Z M 806.0 385.0 L 803.0 386.0 L 796.0 392.0 L 796.0 393.0 L 793.0 397.0 L 793.0 399.0 L 791.0 403.0 L 791.0 417.0 L 795.0 422.0 L 799.0 422.0 L 801.0 421.0 L 807.0 414.0 L 808.0 410.0 L 810.0 407.0 L 810.0 404.0 L 811.0 403.0 L 811.0 400.0 L 812.0 399.0 L 812.0 395.0 L 813.0 394.0 L 814.0 386.0 L 813.0 385.0 L 807.0 385.0 Z M 902.0 385.0 L 901.0 386.0 L 899.0 386.0 L 893.0 391.0 L 890.0 397.0 L 890.0 399.0 L 889.0 400.0 L 889.0 405.0 L 888.0 406.0 L 888.0 414.0 L 889.0 415.0 L 889.0 419.0 L 894.0 424.0 L 902.0 424.0 L 908.0 418.0 L 910.0 414.0 L 910.0 411.0 L 911.0 410.0 L 911.0 392.0 L 908.0 387.0 L 904.0 386.0 L 903.0 385.0 Z M 100.0 386.0 L 99.0 387.0 L 97.0 387.0 L 93.0 391.0 L 92.0 395.0 L 91.0 396.0 L 91.0 400.0 L 92.0 401.0 L 100.0 397.0 L 106.0 392.0 L 106.0 390.0 L 101.0 386.0 Z M 484.0 386.0 L 483.0 387.0 L 479.0 388.0 L 474.0 393.0 L 469.0 403.0 L 469.0 410.0 L 468.0 411.0 L 469.0 413.0 L 469.0 418.0 L 473.0 422.0 L 477.0 422.0 L 479.0 421.0 L 484.0 416.0 L 486.0 412.0 L 486.0 410.0 L 488.0 406.0 L 488.0 403.0 L 489.0 402.0 L 489.0 398.0 L 490.0 397.0 L 490.0 390.0 L 491.0 389.0 L 491.0 387.0 L 490.0 386.0 L 485.0 386.0 Z M 642.0 386.0 L 641.0 387.0 L 639.0 387.0 L 635.0 391.0 L 634.0 393.0 L 634.0 396.0 L 633.0 397.0 L 633.0 400.0 L 634.0 401.0 L 642.0 397.0 L 648.0 392.0 L 648.0 390.0 L 643.0 386.0 Z M 226.0 387.0 L 225.0 388.0 L 225.0 396.0 L 224.0 397.0 L 225.0 399.0 L 227.0 397.0 L 230.0 391.0 L 237.0 384.0 L 242.0 382.0 L 246.0 385.0 L 246.0 387.0 L 247.0 388.0 L 247.0 397.0 L 246.0 398.0 L 245.0 412.0 L 244.0 413.0 L 244.0 423.0 L 245.0 424.0 L 247.0 424.0 L 251.0 422.0 L 250.0 424.0 L 246.0 426.0 L 240.0 427.0 L 239.0 428.0 L 237.0 427.0 L 237.0 424.0 L 238.0 423.0 L 238.0 416.0 L 239.0 415.0 L 239.0 411.0 L 240.0 410.0 L 240.0 403.0 L 241.0 402.0 L 241.0 391.0 L 240.0 389.0 L 238.0 387.0 L 237.0 387.0 L 230.0 394.0 L 225.0 403.0 L 219.0 427.0 L 215.0 427.0 L 215.0 424.0 L 216.0 423.0 L 216.0 417.0 L 217.0 416.0 L 217.0 411.0 L 218.0 410.0 L 218.0 405.0 L 219.0 404.0 L 219.0 395.0 L 220.0 394.0 L 220.0 389.0 L 219.0 388.0 L 215.0 391.0 L 213.0 391.0 L 213.0 390.0 L 218.0 386.0 L 225.0 382.0 L 226.0 383.0 L 226.0 386.0 Z M 673.0 387.0 L 672.0 388.0 L 672.0 396.0 L 671.0 397.0 L 671.0 399.0 L 672.0 400.0 L 677.0 391.0 L 684.0 384.0 L 689.0 382.0 L 693.0 385.0 L 693.0 387.0 L 694.0 388.0 L 694.0 396.0 L 693.0 397.0 L 693.0 405.0 L 692.0 406.0 L 692.0 410.0 L 691.0 411.0 L 691.0 420.0 L 690.0 421.0 L 690.0 423.0 L 691.0 424.0 L 694.0 424.0 L 698.0 422.0 L 698.0 423.0 L 697.0 423.0 L 693.0 426.0 L 687.0 427.0 L 686.0 428.0 L 684.0 427.0 L 685.0 417.0 L 686.0 416.0 L 686.0 410.0 L 687.0 409.0 L 687.0 404.0 L 688.0 403.0 L 688.0 391.0 L 685.0 387.0 L 681.0 389.0 L 675.0 397.0 L 672.0 403.0 L 671.0 408.0 L 670.0 409.0 L 670.0 412.0 L 669.0 413.0 L 669.0 416.0 L 668.0 417.0 L 668.0 420.0 L 667.0 421.0 L 667.0 425.0 L 666.0 427.0 L 662.0 427.0 L 662.0 423.0 L 663.0 422.0 L 663.0 416.0 L 664.0 415.0 L 664.0 411.0 L 665.0 410.0 L 665.0 404.0 L 666.0 403.0 L 666.0 394.0 L 667.0 393.0 L 667.0 390.0 L 666.0 389.0 L 664.0 389.0 L 662.0 391.0 L 660.0 391.0 L 660.0 390.0 L 665.0 386.0 L 672.0 382.0 L 673.0 383.0 L 673.0 386.0 Z M 949.0 387.0 L 947.0 388.0 L 942.0 393.0 L 936.0 404.0 L 936.0 406.0 L 934.0 410.0 L 934.0 413.0 L 933.0 414.0 L 933.0 418.0 L 931.0 422.0 L 931.0 426.0 L 930.0 427.0 L 926.0 427.0 L 926.0 424.0 L 927.0 423.0 L 927.0 420.0 L 928.0 419.0 L 929.0 407.0 L 930.0 406.0 L 930.0 399.0 L 931.0 398.0 L 931.0 389.0 L 930.0 388.0 L 926.0 391.0 L 924.0 391.0 L 925.0 389.0 L 926.0 389.0 L 934.0 383.0 L 937.0 383.0 L 937.0 390.0 L 936.0 391.0 L 936.0 398.0 L 937.0 399.0 L 942.0 390.0 L 948.0 384.0 L 952.0 382.0 L 954.0 382.0 L 956.0 384.0 L 957.0 384.0 L 957.0 386.0 L 958.0 387.0 L 958.0 399.0 L 957.0 400.0 L 957.0 407.0 L 956.0 408.0 L 956.0 414.0 L 955.0 415.0 L 955.0 423.0 L 956.0 424.0 L 958.0 424.0 L 961.0 422.0 L 962.0 422.0 L 962.0 423.0 L 955.0 427.0 L 952.0 427.0 L 951.0 428.0 L 949.0 427.0 L 949.0 419.0 L 950.0 418.0 L 950.0 412.0 L 951.0 411.0 L 951.0 406.0 L 952.0 405.0 L 952.0 390.0 L 950.0 388.0 Z M 115.0 388.0 L 103.0 397.0 L 98.0 399.0 L 96.0 401.0 L 90.0 404.0 L 90.0 414.0 L 91.0 415.0 L 91.0 417.0 L 95.0 421.0 L 97.0 422.0 L 103.0 422.0 L 106.0 420.0 L 108.0 420.0 L 111.0 417.0 L 113.0 417.0 L 113.0 418.0 L 110.0 421.0 L 109.0 421.0 L 102.0 426.0 L 93.0 428.0 L 88.0 425.0 L 88.0 424.0 L 86.0 422.0 L 85.0 416.0 L 84.0 415.0 L 84.0 404.0 L 85.0 403.0 L 85.0 400.0 L 89.0 392.0 L 95.0 386.0 L 96.0 386.0 L 100.0 383.0 L 105.0 382.0 L 106.0 383.0 L 110.0 384.0 L 112.0 388.0 L 113.0 388.0 L 115.0 386.0 L 115.0 387.0 Z M 157.0 388.0 L 155.0 390.0 L 151.0 392.0 L 151.0 391.0 L 156.0 386.0 L 164.0 382.0 L 165.0 383.0 L 164.0 385.0 L 164.0 395.0 L 163.0 396.0 L 162.0 409.0 L 161.0 410.0 L 161.0 421.0 L 160.0 422.0 L 162.0 424.0 L 164.0 424.0 L 167.0 422.0 L 169.0 422.0 L 168.0 424.0 L 164.0 425.0 L 163.0 426.0 L 161.0 426.0 L 160.0 427.0 L 158.0 427.0 L 157.0 428.0 L 155.0 427.0 L 155.0 416.0 L 156.0 415.0 L 156.0 409.0 L 157.0 408.0 L 157.0 400.0 L 158.0 399.0 L 158.0 391.0 L 159.0 390.0 L 158.0 388.0 Z M 211.0 388.0 L 210.0 390.0 L 205.0 390.0 L 203.0 392.0 L 203.0 401.0 L 200.0 407.0 L 193.0 412.0 L 187.0 413.0 L 184.0 417.0 L 185.0 420.0 L 188.0 423.0 L 192.0 424.0 L 195.0 426.0 L 197.0 426.0 L 203.0 429.0 L 206.0 432.0 L 207.0 434.0 L 207.0 439.0 L 206.0 440.0 L 206.0 442.0 L 200.0 448.0 L 194.0 451.0 L 191.0 451.0 L 190.0 452.0 L 178.0 452.0 L 177.0 451.0 L 173.0 450.0 L 168.0 445.0 L 168.0 438.0 L 174.0 432.0 L 180.0 429.0 L 182.0 429.0 L 183.0 428.0 L 183.0 427.0 L 180.0 423.0 L 180.0 418.0 L 184.0 414.0 L 184.0 413.0 L 178.0 408.0 L 177.0 406.0 L 177.0 402.0 L 176.0 401.0 L 177.0 400.0 L 177.0 395.0 L 179.0 391.0 L 186.0 384.0 L 188.0 383.0 L 198.0 383.0 L 202.0 387.0 L 208.0 386.0 L 210.0 384.0 L 211.0 384.0 L 211.0 387.0 Z M 421.0 388.0 L 415.0 392.0 L 414.0 391.0 L 415.0 390.0 L 416.0 390.0 L 420.0 386.0 L 428.0 382.0 L 428.0 392.0 L 427.0 393.0 L 427.0 401.0 L 426.0 402.0 L 426.0 406.0 L 425.0 407.0 L 424.0 423.0 L 425.0 424.0 L 428.0 424.0 L 431.0 422.0 L 433.0 422.0 L 433.0 423.0 L 427.0 426.0 L 419.0 428.0 L 418.0 427.0 L 418.0 421.0 L 419.0 420.0 L 419.0 414.0 L 420.0 413.0 L 420.0 405.0 L 421.0 404.0 L 421.0 399.0 L 422.0 398.0 L 422.0 389.0 Z M 657.0 388.0 L 652.0 392.0 L 651.0 392.0 L 648.0 395.0 L 645.0 396.0 L 640.0 400.0 L 632.0 404.0 L 632.0 414.0 L 633.0 415.0 L 633.0 417.0 L 637.0 421.0 L 639.0 422.0 L 645.0 422.0 L 646.0 421.0 L 650.0 420.0 L 653.0 417.0 L 655.0 417.0 L 655.0 418.0 L 652.0 421.0 L 651.0 421.0 L 644.0 426.0 L 642.0 426.0 L 638.0 428.0 L 635.0 428.0 L 631.0 426.0 L 631.0 425.0 L 628.0 422.0 L 627.0 416.0 L 626.0 415.0 L 626.0 404.0 L 627.0 403.0 L 627.0 400.0 L 632.0 391.0 L 637.0 386.0 L 638.0 386.0 L 642.0 383.0 L 647.0 382.0 L 648.0 383.0 L 652.0 384.0 L 654.0 388.0 L 657.0 386.0 L 657.0 387.0 Z M 865.0 388.0 L 858.0 392.0 L 858.0 391.0 L 862.0 387.0 L 871.0 382.0 L 872.0 383.0 L 871.0 385.0 L 871.0 396.0 L 870.0 397.0 L 870.0 402.0 L 869.0 403.0 L 869.0 410.0 L 868.0 411.0 L 868.0 418.0 L 867.0 419.0 L 867.0 422.0 L 869.0 424.0 L 871.0 424.0 L 876.0 421.0 L 877.0 422.0 L 873.0 425.0 L 871.0 425.0 L 868.0 427.0 L 865.0 427.0 L 863.0 428.0 L 862.0 427.0 L 862.0 415.0 L 863.0 414.0 L 863.0 409.0 L 864.0 408.0 L 864.0 400.0 L 865.0 399.0 L 865.0 393.0 L 866.0 392.0 L 866.0 389.0 Z M 891.0 390.0 L 897.0 385.0 L 901.0 383.0 L 903.0 383.0 L 904.0 382.0 L 908.0 382.0 L 909.0 383.0 L 911.0 383.0 L 915.0 386.0 L 917.0 390.0 L 917.0 392.0 L 918.0 393.0 L 918.0 404.0 L 917.0 405.0 L 917.0 408.0 L 913.0 416.0 L 905.0 424.0 L 904.0 424.0 L 902.0 426.0 L 900.0 427.0 L 897.0 427.0 L 896.0 428.0 L 893.0 428.0 L 892.0 427.0 L 888.0 426.0 L 884.0 422.0 L 883.0 418.0 L 882.0 417.0 L 882.0 406.0 L 883.0 405.0 L 884.0 400.0 L 886.0 398.0 L 889.0 392.0 L 891.0 391.0 Z M 335.0 393.0 L 334.0 394.0 L 334.0 399.0 L 333.0 400.0 L 332.0 418.0 L 331.0 419.0 L 331.0 422.0 L 333.0 425.0 L 340.0 425.0 L 341.0 424.0 L 345.0 424.0 L 349.0 422.0 L 353.0 418.0 L 355.0 414.0 L 355.0 404.0 L 353.0 400.0 L 348.0 395.0 L 346.0 394.0 L 344.0 394.0 L 343.0 393.0 L 336.0 393.0 Z M 706.0 397.0 L 708.0 395.0 L 708.0 394.0 L 717.0 385.0 L 721.0 383.0 L 724.0 383.0 L 725.0 382.0 L 731.0 383.0 L 736.0 387.0 L 737.0 391.0 L 738.0 392.0 L 738.0 396.0 L 739.0 397.0 L 738.0 406.0 L 737.0 407.0 L 737.0 409.0 L 734.0 415.0 L 728.0 422.0 L 727.0 422.0 L 724.0 425.0 L 720.0 427.0 L 718.0 427.0 L 717.0 428.0 L 714.0 428.0 L 713.0 427.0 L 710.0 427.0 L 708.0 426.0 L 704.0 421.0 L 704.0 419.0 L 702.0 415.0 L 702.0 407.0 L 703.0 406.0 L 704.0 401.0 L 706.0 398.0 Z M 184.0 429.0 L 183.0 430.0 L 179.0 431.0 L 173.0 437.0 L 173.0 439.0 L 172.0 440.0 L 173.0 444.0 L 177.0 448.0 L 181.0 449.0 L 182.0 450.0 L 191.0 450.0 L 192.0 449.0 L 194.0 449.0 L 200.0 444.0 L 202.0 440.0 L 202.0 437.0 L 199.0 433.0 L 193.0 430.0 L 191.0 430.0 L 190.0 429.0 L 185.0 429.0 Z" fill="#FFFFFF" fill-rule="evenodd" />
</svg>
