<svg xmlns="http://www.w3.org/2000/svg" viewBox="0 0 977 467" width="977" height="467">
  <defs>
    <linearGradient id="gold-gradient" x1="0%" y1="0%" x2="100%" y2="100%">
      <stop offset="0%" stop-color="#D4AF37" />
      <stop offset="25%" stop-color="#F3E5AB" />
      <stop offset="50%" stop-color="#C5A059" />
      <stop offset="75%" stop-color="#E5C158" />
      <stop offset="100%" stop-color="#B8860B" />
    </linearGradient>
</defs>
  <path d="M 166.0 19.0 L 167.0 17.0 L 263.0 17.0 L 264.0 19.0 L 260.0 23.0 L 259.0 23.0 L 251.0 31.0 L 245.0 35.0 L 241.0 40.0 L 234.0 45.0 L 216.0 61.0 L 212.0 60.0 L 207.0 55.0 L 206.0 55.0 L 198.0 47.0 L 197.0 47.0 L 167.0 20.0 Z M 270.0 45.0 L 268.0 46.0 L 259.0 55.0 L 254.0 58.0 L 250.0 63.0 L 250.0 256.0 L 251.0 257.0 L 315.0 257.0 L 317.0 255.0 L 316.0 254.0 L 316.0 252.0 L 317.0 251.0 L 317.0 247.0 L 316.0 246.0 L 316.0 89.0 L 317.0 88.0 L 311.0 81.0 L 310.0 81.0 L 271.0 45.0 Z M 683.0 54.0 L 683.0 53.0 L 718.0 18.0 L 720.0 17.0 L 721.0 18.0 L 721.0 141.0 L 723.0 142.0 L 734.0 131.0 L 735.0 131.0 L 763.0 105.0 L 766.0 105.0 L 791.0 133.0 L 790.0 135.0 L 790.0 256.0 L 792.0 259.0 L 812.0 259.0 L 810.0 264.0 L 799.0 276.0 L 794.0 283.0 L 793.0 283.0 L 791.0 286.0 L 789.0 287.0 L 787.0 291.0 L 785.0 291.0 L 784.0 292.0 L 756.0 292.0 L 754.0 290.0 L 754.0 153.0 L 741.0 139.0 L 741.0 138.0 L 739.0 137.0 L 731.0 144.0 L 728.0 145.0 L 727.0 147.0 L 721.0 152.0 L 721.0 291.0 L 719.0 292.0 L 684.0 292.0 L 683.0 291.0 L 683.0 55.0 Z M 387.0 60.0 L 387.0 59.0 L 423.0 24.0 L 424.0 25.0 L 424.0 34.0 L 425.0 35.0 L 425.0 38.0 L 424.0 39.0 L 424.0 60.0 L 425.0 61.0 L 425.0 66.0 L 423.0 67.0 L 421.0 70.0 L 420.0 70.0 L 418.0 73.0 L 400.0 90.0 L 400.0 91.0 L 398.0 91.0 L 397.0 93.0 L 388.0 102.0 L 387.0 102.0 L 387.0 61.0 Z M 210.0 89.0 L 294.0 15.0 L 297.0 15.0 L 304.0 22.0 L 305.0 22.0 L 319.0 35.0 L 320.0 35.0 L 328.0 43.0 L 329.0 43.0 L 357.0 68.0 L 357.0 232.0 L 319.0 266.0 L 313.0 270.0 L 311.0 273.0 L 305.0 277.0 L 303.0 280.0 L 302.0 280.0 L 288.0 292.0 L 167.0 292.0 L 165.0 291.0 L 165.0 290.0 L 173.0 285.0 L 210.0 257.0 L 210.0 178.0 L 206.0 176.0 L 174.0 176.0 L 177.0 172.0 L 178.0 172.0 L 194.0 156.0 L 195.0 156.0 L 208.0 143.0 L 210.0 142.0 L 210.0 90.0 Z M 472.0 108.0 L 546.0 108.0 L 547.0 109.0 L 546.0 115.0 L 543.0 120.0 L 542.0 125.0 L 538.0 132.0 L 536.0 140.0 L 533.0 145.0 L 532.0 150.0 L 528.0 157.0 L 526.0 165.0 L 524.0 167.0 L 524.0 170.0 L 519.0 180.0 L 519.0 183.0 L 520.0 184.0 L 543.0 184.0 L 543.0 189.0 L 542.0 191.0 L 516.0 191.0 L 514.0 193.0 L 510.0 203.0 L 511.0 205.0 L 538.0 205.0 L 538.0 210.0 L 536.0 212.0 L 508.0 212.0 L 504.0 217.0 L 503.0 222.0 L 501.0 225.0 L 499.0 232.0 L 496.0 237.0 L 494.0 245.0 L 491.0 249.0 L 489.0 257.0 L 490.0 258.0 L 536.0 258.0 L 538.0 256.0 L 538.0 254.0 L 540.0 252.0 L 540.0 250.0 L 543.0 244.0 L 546.0 244.0 L 550.0 246.0 L 549.0 252.0 L 544.0 262.0 L 544.0 264.0 L 542.0 267.0 L 542.0 269.0 L 539.0 274.0 L 538.0 279.0 L 533.0 288.0 L 533.0 291.0 L 532.0 292.0 L 530.0 291.0 L 528.0 292.0 L 451.0 292.0 L 448.0 290.0 L 449.0 289.0 L 450.0 284.0 L 452.0 281.0 L 452.0 279.0 L 454.0 276.0 L 454.0 274.0 L 457.0 269.0 L 458.0 264.0 L 460.0 261.0 L 460.0 259.0 L 466.0 246.0 L 466.0 244.0 L 468.0 241.0 L 468.0 239.0 L 470.0 236.0 L 470.0 234.0 L 472.0 231.0 L 472.0 229.0 L 474.0 226.0 L 474.0 224.0 L 476.0 221.0 L 476.0 219.0 L 478.0 216.0 L 478.0 213.0 L 477.0 212.0 L 455.0 212.0 L 456.0 206.0 L 457.0 205.0 L 481.0 205.0 L 483.0 203.0 L 484.0 199.0 L 487.0 194.0 L 487.0 192.0 L 486.0 191.0 L 462.0 191.0 L 462.0 185.0 L 463.0 184.0 L 489.0 184.0 L 491.0 182.0 L 491.0 180.0 L 494.0 175.0 L 495.0 170.0 L 500.0 160.0 L 501.0 155.0 L 506.0 144.0 L 506.0 142.0 L 505.0 141.0 L 467.0 141.0 L 465.0 143.0 L 461.0 153.0 L 457.0 153.0 L 454.0 151.0 L 456.0 144.0 L 460.0 137.0 L 460.0 135.0 L 463.0 130.0 L 463.0 128.0 L 472.0 109.0 Z M 605.0 134.0 L 604.0 135.0 L 604.0 211.0 L 605.0 212.0 L 616.0 201.0 L 616.0 200.0 L 626.0 190.0 L 626.0 189.0 L 636.0 179.0 L 637.0 177.0 L 606.0 134.0 Z M 388.0 137.0 L 389.0 137.0 L 423.0 103.0 L 424.0 103.0 L 424.0 251.0 L 425.0 252.0 L 425.0 258.0 L 426.0 259.0 L 446.0 259.0 L 446.0 262.0 L 442.0 266.0 L 442.0 267.0 L 441.0 267.0 L 437.0 271.0 L 435.0 275.0 L 427.0 283.0 L 427.0 284.0 L 421.0 291.0 L 419.0 292.0 L 389.0 292.0 L 387.0 291.0 L 387.0 139.0 L 388.0 138.0 Z M 566.0 158.0 L 625.0 103.0 L 628.0 103.0 L 629.0 104.0 L 666.0 154.0 L 666.0 157.0 L 661.0 162.0 L 661.0 163.0 L 660.0 163.0 L 646.0 178.0 L 646.0 179.0 L 642.0 182.0 L 642.0 183.0 L 636.0 189.0 L 636.0 190.0 L 626.0 200.0 L 626.0 201.0 L 617.0 210.0 L 617.0 211.0 L 613.0 214.0 L 613.0 215.0 L 604.0 225.0 L 604.0 257.0 L 606.0 259.0 L 656.0 259.0 L 656.0 261.0 L 652.0 265.0 L 651.0 265.0 L 649.0 268.0 L 634.0 282.0 L 634.0 283.0 L 631.0 284.0 L 625.0 291.0 L 623.0 291.0 L 622.0 292.0 L 568.0 292.0 L 566.0 291.0 L 566.0 159.0 Z" fill="url(#gold-gradient)" fill-rule="evenodd" />
</svg>
